# Blender 4.0.2
# www.blender.org
mtllib paddle.mtl
o paddle
v 0.000000 0.000000 -1.000000
v 0.000000 0.200000 -0.585890
v 0.500000 0.000000 -0.866025
v 0.292945 0.200000 -0.507395
v 0.866025 0.000000 -0.500000
v 0.507395 0.200000 -0.292945
v 1.000000 0.000000 0.000000
v 0.585890 0.200000 0.000000
v 0.866025 0.000000 0.500000
v 0.507395 0.200000 0.292945
v 0.500000 0.000000 0.866025
v 0.292945 0.200000 0.507395
v 0.000000 0.000000 1.000000
v 0.000000 0.200000 0.585890
v -0.500000 0.000000 0.866025
v -0.292945 0.200000 0.507395
v -0.866025 0.000000 0.500000
v -0.507395 0.200000 0.292945
v -1.000000 0.000000 0.000000
v -0.585890 0.200000 0.000000
v -0.866025 0.000000 -0.500000
v -0.507395 0.200000 -0.292945
v -0.500000 0.000000 -0.866025
v -0.292945 0.200000 -0.507395
v 0.500000 0.500000 -0.866025
v 0.000000 0.500000 -1.000000
v 0.866025 0.500000 -0.500000
v 1.000000 0.500000 0.000000
v 0.866025 0.500000 0.500000
v 0.500000 0.500000 0.866025
v 0.000000 0.500000 1.000000
v -0.500000 0.500000 0.866025
v -0.866025 0.500000 0.500000
v -1.000000 0.500000 0.000000
v -0.866025 0.500000 -0.500000
v -0.500000 0.500000 -0.866025
v 0.422354 0.500000 -0.731539
v 0.000000 0.500000 -0.844709
v 0.731539 0.500000 -0.422354
v 0.844709 0.500000 0.000000
v 0.731539 0.500000 0.422354
v 0.422354 0.500000 0.731539
v 0.000000 0.500000 0.844709
v -0.422354 0.500000 0.731539
v -0.731539 0.500000 0.422354
v -0.844709 0.500000 0.000000
v -0.731539 0.500000 -0.422354
v -0.422354 0.500000 -0.731539
v 0.000000 0.200000 -0.350000
v -0.247487 0.200000 -0.247487
v -0.350000 0.200000 0.000000
v -0.247487 0.200000 0.247487
v 0.000000 0.200000 0.350000
v 0.247487 0.200000 0.247487
v 0.350000 0.200000 0.000000
v 0.247487 0.200000 -0.247487
v 0.123744 1.303109 -0.123744
v 0.214330 1.175000 -0.214330
v 0.247487 1.000000 -0.247487
v 0.175000 1.303109 0.000000
v 0.303109 1.175000 0.000000
v 0.350000 1.000000 0.000000
v 0.123744 1.303109 0.123744
v 0.214330 1.175000 0.214330
v 0.247487 1.000000 0.247487
v 0.000000 1.303109 0.175000
v 0.000000 1.175000 0.303109
v 0.000000 1.000000 0.350000
v 0.000000 1.350000 0.000000
v -0.123744 1.303109 0.123744
v -0.214330 1.175000 0.214330
v -0.247487 1.000000 0.247487
v -0.175000 1.303109 0.000000
v -0.303109 1.175000 0.000000
v -0.350000 1.000000 0.000000
v -0.123744 1.303109 -0.123744
v -0.214330 1.175000 -0.214330
v -0.247487 1.000000 -0.247487
v 0.000000 1.303109 -0.175000
v 0.000000 1.175000 -0.303109
v 0.000000 1.000000 -0.350000
vn -0.0000 -0.0000 -1.0000
vn -0.0000 0.6532 -0.7572
vn 0.3786 0.6532 -0.6557
vn 0.5000 -0.0000 -0.8660
vn 0.6557 0.6532 -0.3786
vn 0.8660 -0.0000 -0.5000
vn 0.7572 0.6532 -0.0000
vn 1.0000 -0.0000 -0.0000
vn 0.6557 0.6532 0.3786
vn 0.8660 -0.0000 0.5000
vn 0.3786 0.6532 0.6557
vn 0.5000 -0.0000 0.8660
vn -0.0000 0.6532 0.7572
vn -0.0000 -0.0000 1.0000
vn -0.3786 0.6532 0.6557
vn -0.5000 -0.0000 0.8660
vn -0.6557 0.6532 0.3786
vn -0.8660 -0.0000 0.5000
vn -0.7572 0.6532 -0.0000
vn -1.0000 -0.0000 -0.0000
vn -0.6557 0.6532 -0.3786
vn -0.8660 -0.0000 -0.5000
vn -0.3786 0.6532 -0.6557
vn -0.5000 -0.0000 -0.8660
vn -0.0000 1.0000 -0.0000
vn -0.0000 0.8825 0.4704
vn -0.2352 0.8825 0.4073
vn -0.1780 0.9345 0.3082
vn -0.0000 0.9345 0.3559
vn -0.4073 0.8825 0.2352
vn -0.3082 0.9345 0.1780
vn -0.4704 0.8825 -0.0000
vn -0.3559 0.9345 -0.0000
vn -0.4073 0.8825 -0.2352
vn -0.3082 0.9345 -0.1780
vn -0.2352 0.8825 -0.4073
vn -0.1780 0.9345 -0.3082
vn -0.0000 0.8825 -0.4704
vn -0.0000 0.9345 -0.3559
vn 0.2352 0.8825 -0.4073
vn 0.1780 0.9345 -0.3082
vn 0.4073 0.8825 -0.2352
vn 0.3082 0.9345 -0.1780
vn 0.4704 0.8825 -0.0000
vn 0.3559 0.9345 -0.0000
vn 0.4073 0.8825 0.2352
vn 0.3082 0.9345 0.1780
vn 0.2352 0.8825 0.4073
vn 0.1780 0.9345 0.3082
vn -0.0000 0.1266 -0.9920
vn -0.0000 0.4744 -0.8803
vn 0.6225 0.4744 -0.6225
vn 0.7014 0.1266 -0.7014
vn -0.0000 0.8383 -0.5452
vn 0.3855 0.8383 -0.3855
vn 0.8803 0.4744 -0.0000
vn 0.9920 0.1266 -0.0000
vn 0.5452 0.8383 -0.0000
vn 0.3855 0.8383 0.3855
vn 0.6225 0.4744 0.6225
vn 0.7014 0.1266 0.7014
vn -0.0000 0.8383 0.5452
vn -0.0000 0.4744 0.8803
vn -0.0000 0.1266 0.9920
vn -0.3855 0.8383 0.3855
vn -0.6225 0.4744 0.6225
vn -0.7014 0.1266 0.7014
vn -0.5452 0.8383 -0.0000
vn -0.8803 0.4744 -0.0000
vn -0.9920 0.1266 -0.0000
vn -0.3855 0.8383 -0.3855
vn -0.6225 0.4744 -0.6225
vn -0.7014 0.1266 -0.7014
vn 0.5490 0.6303 -0.5490
vn -0.0000 0.8042 -0.5944
vn 0.5944 0.8042 -0.0000
vn 0.5490 0.6303 0.5490
vn -0.0000 0.8042 0.5944
vn -0.5490 0.6303 0.5490
vn -0.5944 0.8042 -0.0000
vn -0.5490 0.6303 -0.5490
vt 1.000000 0.500000
vt 1.000000 1.000000
vt 0.916667 1.000000
vt 0.916667 0.500000
vt 0.833333 1.000000
vt 0.833333 0.500000
vt 0.750000 1.000000
vt 0.750000 0.500000
vt 0.666667 1.000000
vt 0.666667 0.500000
vt 0.583333 1.000000
vt 0.583333 0.500000
vt 0.500000 1.000000
vt 0.500000 0.500000
vt 0.416667 1.000000
vt 0.416667 0.500000
vt 0.333333 1.000000
vt 0.333333 0.500000
vt 0.250000 1.000000
vt 0.250000 0.500000
vt 0.166667 1.000000
vt 0.166667 0.500000
vt 0.083333 1.000000
vt 0.083333 0.500000
vt 0.000000 1.000000
vt 0.000000 0.500000
vt 0.250000 0.452730
vt 0.351365 0.425569
vt 0.370000 0.457846
vt 0.250000 0.490000
vt 0.425569 0.351365
vt 0.457846 0.370000
vt 0.452730 0.250000
vt 0.490000 0.250000
vt 0.425569 0.148635
vt 0.457846 0.130000
vt 0.351365 0.074431
vt 0.370000 0.042154
vt 0.250000 0.047270
vt 0.250000 0.010000
vt 0.148635 0.074431
vt 0.130000 0.042154
vt 0.074431 0.148635
vt 0.042154 0.130000
vt 0.047270 0.250000
vt 0.010000 0.250000
vt 0.074431 0.351365
vt 0.042154 0.370000
vt 0.148635 0.425569
vt 0.130000 0.457846
vt 0.250000 0.390613
vt 0.320307 0.371775
vt 0.371775 0.320307
vt 0.390613 0.250000
vt 0.371775 0.179693
vt 0.320307 0.128225
vt 0.250000 0.109387
vt 0.179693 0.128225
vt 0.128225 0.179693
vt 0.109387 0.250000
vt 0.128225 0.320307
vt 0.179693 0.371775
vt 0.000000 0.000000
vt 0.750000 0.500000
vt 0.750000 0.666667
vt 0.625000 0.666667
vt 0.625000 0.500000
vt 0.750000 0.833333
vt 0.687500 1.000000
vt 0.625000 0.833333
vt 0.500000 0.666667
vt 0.500000 0.500000
vt 0.562500 1.000000
vt 0.500000 0.833333
vt 0.437500 1.000000
vt 0.375000 0.833333
vt 0.375000 0.666667
vt 0.375000 0.500000
vt 0.250000 0.833333
vt 0.250000 0.666667
vt 0.250000 0.500000
vt 0.312500 1.000000
vt 0.125000 0.833333
vt 0.125000 0.666667
vt 0.125000 0.500000
vt 0.187500 1.000000
vt 0.000000 0.833333
vt 0.000000 0.666667
vt 0.000000 0.500000
vt 0.062500 1.000000
vt 1.000000 0.666667
vt 1.000000 0.833333
vt 0.875000 0.833333
vt 0.875000 0.666667
vt 0.875000 0.500000
vt 0.937500 1.000000
vt 0.812500 1.000000
s 1
f 1/1/1 26/2/2 25/3/3 3/4/4
f 3/4/4 25/3/3 27/5/5 5/6/6
f 5/6/6 27/5/5 28/7/7 7/8/8
f 7/8/8 28/7/7 29/9/9 9/10/10
f 9/10/10 29/9/9 30/11/11 11/12/12
f 11/12/12 30/11/11 31/13/13 13/14/14
f 13/14/14 31/13/13 32/15/15 15/16/16
f 15/16/16 32/15/15 33/17/17 17/18/18
f 17/18/18 33/17/17 34/19/19 19/20/20
f 19/20/20 34/19/19 35/21/21 21/22/22
f 21/22/22 35/21/21 36/23/23 23/24/24
f 23/24/24 36/23/23 26/25/2 1/26/1
s 0
f 38/27/25 37/28/25 25/29/25 26/30/25
f 37/28/25 39/31/25 27/32/25 25/29/25
f 39/31/25 40/33/25 28/34/25 27/32/25
f 40/33/25 41/35/25 29/36/25 28/34/25
f 41/35/25 42/37/25 30/38/25 29/36/25
f 42/37/25 43/39/25 31/40/25 30/38/25
f 43/39/25 44/41/25 32/42/25 31/40/25
f 44/41/25 45/43/25 33/44/25 32/42/25
f 45/43/25 46/45/25 34/46/25 33/44/25
f 46/45/25 47/47/25 35/48/25 34/46/25
f 47/47/25 48/49/25 36/50/25 35/48/25
f 48/49/25 38/27/25 26/30/25 36/50/25
s 1
f 2/51/26 4/52/27 37/28/28 38/27/29
f 4/52/27 6/53/30 39/31/31 37/28/28
f 6/53/30 8/54/32 40/33/33 39/31/31
f 8/54/32 10/55/34 41/35/35 40/33/33
f 10/55/34 12/56/36 42/37/37 41/35/35
f 12/56/36 14/57/38 43/39/39 42/37/37
f 14/57/38 16/58/40 44/41/41 43/39/39
f 16/58/40 18/59/42 45/43/43 44/41/41
f 18/59/42 20/60/44 46/45/45 45/43/43
f 20/60/44 22/61/46 47/47/47 46/45/45
f 22/61/46 24/62/48 48/49/49 47/47/47
f 24/62/48 2/51/26 38/27/29 48/49/49
s 0
f 8/54/25 55/63/25 54/63/25 53/63/25 14/57/25 12/56/25 10/55/25
f 2/51/25 49/63/25 56/63/25 55/63/25 8/54/25 6/53/25 4/52/25
f 20/60/25 51/63/25 50/63/25 49/63/25 2/51/25 24/62/25 22/61/25
f 14/57/25 53/63/25 52/63/25 51/63/25 20/60/25 18/59/25 16/58/25
s 1
f 81/64/50 80/65/51 58/66/52 59/67/53
f 79/68/54 69/69/25 57/70/55
f 80/65/51 79/68/54 57/70/55 58/66/52
f 59/67/53 58/66/52 61/71/56 62/72/57
f 57/70/55 69/73/25 60/74/58
f 58/66/52 57/70/55 60/74/58 61/71/56
f 60/74/58 69/75/25 63/76/59
f 61/71/56 60/74/58 63/76/59 64/77/60
f 62/72/57 61/71/56 64/77/60 65/78/61
f 64/77/60 63/76/59 66/79/62 67/80/63
f 65/78/61 64/77/60 67/80/63 68/81/64
f 63/76/59 69/82/25 66/79/62
f 67/80/63 66/79/62 70/83/65 71/84/66
f 68/81/64 67/80/63 71/84/66 72/85/67
f 66/79/62 69/86/25 70/83/65
f 71/84/66 70/83/65 73/87/68 74/88/69
f 72/85/67 71/84/66 74/88/69 75/89/70
f 70/83/65 69/90/25 73/87/68
f 74/91/69 73/92/68 76/93/71 77/94/72
f 75/1/70 74/91/69 77/94/72 78/95/73
f 73/92/68 69/96/25 76/93/71
f 77/94/72 76/93/71 79/68/54 80/65/51
f 78/95/73 77/94/72 80/65/51 81/64/50
f 76/93/71 69/97/25 79/68/54
f 81/64/50 59/67/53 56/63/74 49/63/75
f 59/67/53 62/72/57 55/63/76 56/63/74
f 62/72/57 65/78/61 54/63/77 55/63/76
f 65/78/61 68/81/64 53/63/78 54/63/77
f 68/81/64 72/85/67 52/63/79 53/63/78
f 72/85/67 75/89/70 51/63/80 52/63/79
f 75/1/70 78/95/73 50/63/81 51/63/80
f 78/95/73 81/64/50 49/63/75 50/63/81
