# Blender 4.0.2
# www.blender.org
mtllib puck.mtl
o puck
v 0.000000 0.000000 -0.500000
v 0.000000 0.150000 -0.344709
v 0.250000 0.000000 -0.433013
v 0.172354 0.150000 -0.298526
v 0.433013 0.000000 -0.250000
v 0.298526 0.150000 -0.172354
v 0.500000 0.000000 0.000000
v 0.344709 0.150000 0.000000
v 0.433013 0.000000 0.250000
v 0.298526 0.150000 0.172354
v 0.250000 0.000000 0.433013
v 0.172354 0.150000 0.298526
v 0.000000 0.000000 0.500000
v 0.000000 0.150000 0.344709
v -0.250000 0.000000 0.433013
v -0.172354 0.150000 0.298526
v -0.433013 0.000000 0.250000
v -0.298526 0.150000 0.172354
v -0.500000 0.000000 0.000000
v -0.344709 0.150000 0.000000
v -0.433013 0.000000 -0.250000
v -0.298526 0.150000 -0.172354
v -0.250000 0.000000 -0.433013
v -0.172354 0.150000 -0.298526
v 0.250000 0.150000 -0.433013
v 0.000000 0.150000 -0.500000
v 0.433013 0.150000 -0.250000
v 0.500000 0.150000 0.000000
v 0.433013 0.150000 0.250000
v 0.250000 0.150000 0.433013
v 0.000000 0.150000 0.500000
v -0.250000 0.150000 0.433013
v -0.433013 0.150000 0.250000
v -0.500000 0.150000 0.000000
v -0.433013 0.150000 -0.250000
v -0.250000 0.150000 -0.433013
v 0.172354 0.100000 -0.298526
v 0.000000 0.100000 -0.344709
v 0.298526 0.100000 -0.172354
v 0.344709 0.100000 0.000000
v 0.298526 0.100000 0.172354
v 0.172354 0.100000 0.298526
v 0.000000 0.100000 0.344709
v -0.172354 0.100000 0.298526
v -0.298526 0.100000 0.172354
v -0.344709 0.100000 0.000000
v -0.298526 0.100000 -0.172354
v -0.172354 0.100000 -0.298526
vn -0.0000 -0.0000 -1.0000
vn -0.0000 0.6532 -0.7572
vn 0.3786 0.6532 -0.6557
vn 0.5000 -0.0000 -0.8660
vn 0.6557 0.6532 -0.3786
vn 0.8660 -0.0000 -0.5000
vn 0.7572 0.6532 -0.0000
vn 1.0000 -0.0000 -0.0000
vn 0.6557 0.6532 0.3786
vn 0.8660 -0.0000 0.5000
vn 0.3786 0.6532 0.6557
vn 0.5000 -0.0000 0.8660
vn -0.0000 0.6532 0.7572
vn -0.0000 -0.0000 1.0000
vn -0.3786 0.6532 0.6557
vn -0.5000 -0.0000 0.8660
vn -0.6557 0.6532 0.3786
vn -0.8660 -0.0000 0.5000
vn -0.7572 0.6532 -0.0000
vn -1.0000 -0.0000 -0.0000
vn -0.6557 0.6532 -0.3786
vn -0.8660 -0.0000 -0.5000
vn 0.3189 0.7703 0.5523
vn 0.5523 0.7703 0.3189
vn -0.3786 0.6532 -0.6557
vn -0.5000 -0.0000 -0.8660
vn -0.0000 1.0000 -0.0000
vn -0.3189 0.7703 0.5523
vn -0.0000 0.7703 0.6377
vn 0.5523 0.7703 -0.3189
vn 0.3189 0.7703 -0.5523
vn -0.3189 0.7703 -0.5523
vn -0.5523 0.7703 -0.3189
vn -0.5523 0.7703 0.3189
vn 0.6377 0.7703 -0.0000
vn -0.0000 0.7703 -0.6377
vn -0.6377 0.7703 -0.0000
vt 1.000000 0.500000
vt 1.000000 1.000000
vt 0.916667 1.000000
vt 0.916667 0.500000
vt 0.833333 1.000000
vt 0.833333 0.500000
vt 0.750000 1.000000
vt 0.750000 0.500000
vt 0.666667 1.000000
vt 0.666667 0.500000
vt 0.583333 1.000000
vt 0.583333 0.500000
vt 0.500000 1.000000
vt 0.500000 0.500000
vt 0.416667 1.000000
vt 0.416667 0.500000
vt 0.333333 1.000000
vt 0.333333 0.500000
vt 0.250000 1.000000
vt 0.250000 0.500000
vt 0.166667 1.000000
vt 0.166667 0.500000
vt 0.167270 0.393293
vt 0.106707 0.332730
vt 0.083333 1.000000
vt 0.083333 0.500000
vt 0.000000 1.000000
vt 0.000000 0.500000
vt 0.250000 0.415460
vt 0.332730 0.393293
vt 0.370000 0.457846
vt 0.250000 0.490000
vt 0.393293 0.332730
vt 0.457846 0.370000
vt 0.415460 0.250000
vt 0.490000 0.250000
vt 0.393293 0.167270
vt 0.457846 0.130000
vt 0.332730 0.106707
vt 0.370000 0.042154
vt 0.250000 0.084540
vt 0.250000 0.010000
vt 0.167270 0.106707
vt 0.130000 0.042154
vt 0.106707 0.167270
vt 0.042154 0.130000
vt 0.084540 0.250000
vt 0.010000 0.250000
vt 0.042154 0.370000
vt 0.130000 0.457846
s 1
f 1/1/1 26/2/2 25/3/3 3/4/4
f 3/4/4 25/3/3 27/5/5 5/6/6
f 5/6/6 27/5/5 28/7/7 7/8/8
f 7/8/8 28/7/7 29/9/9 9/10/10
f 9/10/10 29/9/9 30/11/11 11/12/12
f 11/12/12 30/11/11 31/13/13 13/14/14
f 13/14/14 31/13/13 32/15/15 15/16/16
f 15/16/16 32/15/15 33/17/17 17/18/18
f 17/18/18 33/17/17 34/19/19 19/20/20
f 19/20/20 34/19/19 35/21/21 21/22/22
f 24/23/23 22/24/24 47/24/9 48/23/11
f 21/22/22 35/21/21 36/25/25 23/26/26
f 23/26/26 36/25/25 26/27/2 1/28/1
s 0
f 2/29/27 4/30/27 25/31/27 26/32/27
f 4/30/27 6/33/27 27/34/27 25/31/27
f 6/33/27 8/35/27 28/36/27 27/34/27
f 8/35/27 10/37/27 29/38/27 28/36/27
f 10/37/27 12/39/27 30/40/27 29/38/27
f 12/39/27 14/41/27 31/42/27 30/40/27
f 14/41/27 16/43/27 32/44/27 31/42/27
f 16/43/27 18/45/27 33/46/27 32/44/27
f 18/45/27 20/47/27 34/48/27 33/46/27
f 20/47/27 22/24/27 35/49/27 34/48/27
f 22/24/27 24/23/27 36/50/27 35/49/27
f 24/23/27 2/29/27 26/32/27 36/50/27
f 37/30/27 38/29/27 48/23/27 47/24/27 46/47/27 45/45/27 44/43/27 43/41/27 42/39/27 41/37/27 40/35/27 39/33/27
s 1
f 4/30/28 2/29/29 38/29/13 37/30/15
f 18/45/30 16/43/31 44/43/3 45/45/5
f 12/39/32 10/37/33 41/37/21 42/39/25
f 2/29/29 24/23/23 48/23/11 38/29/13
f 6/33/34 4/30/28 37/30/15 39/33/17
f 20/47/35 18/45/30 45/45/5 46/47/7
f 14/41/36 12/39/32 42/39/25 43/41/2
f 8/35/37 6/33/34 39/33/17 40/35/19
f 22/24/24 20/47/35 46/47/7 47/24/9
f 16/43/31 14/41/36 43/41/2 44/43/3
f 10/37/33 8/35/37 40/35/19 41/37/21
